<?xml version="1.0" encoding="UTF-8"?>
<svg width="79px" height="40px" viewBox="0 0 79 40" version="1.1" xmlns="http://www.w3.org/2000/svg" xmlns:xlink="http://www.w3.org/1999/xlink">
    <title>logo</title>
    <g id="Page-1" stroke="none" stroke-width="1" fill="none" fill-rule="evenodd">
        <g id="Artboard" transform="translate(-290.000000, -1193.000000)" fill="#000000">
            <g id="logo" transform="translate(290.468942, 1193.000000)">
                <g id="Group" transform="translate(2.531058, 0.000000)">
                    <path d="M33.0522017,0 L31.2921912,6.87724024 L38.0887745,6.87724024 L40.2974944,0 L46.3046875,0 L40.7275788,21 L21,21 L26.3848834,0 L33.0522017,0 Z M36.6212798,11 L30.3212798,11 L29.3106399,16 L35.6106399,16 L36.6212798,11 Z" id="Combined-Shape-Copy"></path>
                    <path d="M12.0522017,0 L10.2921912,6.87724024 L17.0887745,6.87724024 L19.2974944,0 L25.3046875,0 L19.7275788,21 L0,21 L5.3848834,0 L12.0522017,0 Z M15.6212798,11 L9.32127976,11 L8.31063988,16 L14.6106399,16 L15.6212798,11 Z" id="Combined-Shape-Copy-3"></path>
                </g>
                <polygon id="Path-2" points="1.63045423 23.0292969 44.8335178 23.0292969 43.5605469 28.63882 26.2148437 28.63882 23.5014453 38.3251953 15.4099148 38.3251953 17.7548828 28.63882 2.05938854e-17 28.63882"></polygon>
                <path d="M56.5310583,2 C60.9493363,2 64.5310583,5.581722 64.5310583,10 C64.5310583,14.418278 60.9493363,18 56.5310583,18 C52.1127803,18 48.5310583,14.418278 48.5310583,10 C48.5310583,5.581722 52.1127803,2 56.5310583,2 Z M56.5310583,7 C54.874204,7 53.5310583,8.34314575 53.5310583,10 C53.5310583,11.6568542 54.874204,13 56.5310583,13 C58.1879125,13 59.5310583,11.6568542 59.5310583,10 C59.5310583,8.34314575 58.1879125,7 56.5310583,7 Z" id="Combined-Shape"></path>
                <path d="M60.0310583,19 C65.8300481,19 70.5310583,23.7010101 70.5310583,29.5 C70.5310583,35.2989899 65.8300481,40 60.0310583,40 C54.2320684,40 49.5310583,35.2989899 49.5310583,29.5 C49.5310583,23.7010101 54.2320684,19 60.0310583,19 Z M60.0310583,25.6818182 C57.9223347,25.6818182 56.2128764,27.3912764 56.2128764,29.5 C56.2128764,31.6087236 57.9223347,33.3181818 60.0310583,33.3181818 C62.1397819,33.3181818 63.8492401,31.6087236 63.8492401,29.5 C63.8492401,27.3912764 62.1397819,25.6818182 60.0310583,25.6818182 Z" id="Combined-Shape-Copy-2"></path>
                <polygon id="Rectangle" points="69.9232151 1 77.7663524 1 73.3741955 17 65.5310583 17"></polygon>
            </g>
        </g>
    </g>
</svg>